<mxfile host="app.diagrams.net" agent="Mozilla/5.0 (Windows NT 10.0; Win64; x64; rv:137.0) Gecko/20100101 Firefox/137.0" version="26.1.1">
  <diagram id="C5RBs43oDa-KdzZeNtuy" name="Page-1">
    <mxGraphModel dx="838" dy="457" grid="1" gridSize="10" guides="1" tooltips="1" connect="1" arrows="1" fold="1" page="1" pageScale="1" pageWidth="827" pageHeight="1169" math="0" shadow="0">
      <root>
        <mxCell id="WIyWlLk6GJQsqaUBKTNV-0" />
        <mxCell id="WIyWlLk6GJQsqaUBKTNV-1" parent="WIyWlLk6GJQsqaUBKTNV-0" />
        <mxCell id="o3XGDwg1AF_5hUC5FcFn-22" style="edgeStyle=orthogonalEdgeStyle;rounded=0;orthogonalLoop=1;jettySize=auto;html=1;entryX=0.5;entryY=0;entryDx=0;entryDy=0;" edge="1" parent="WIyWlLk6GJQsqaUBKTNV-1" source="XgQ5IdHaCChkfWggYWmZ-6" target="XgQ5IdHaCChkfWggYWmZ-9">
          <mxGeometry relative="1" as="geometry" />
        </mxCell>
        <mxCell id="XgQ5IdHaCChkfWggYWmZ-6" value="&lt;code&gt;Data Preprocessing and Normalization&lt;/code&gt;" style="rounded=1;whiteSpace=wrap;html=1;fontSize=12;glass=0;strokeWidth=1;shadow=0;" parent="WIyWlLk6GJQsqaUBKTNV-1" vertex="1">
          <mxGeometry x="201" y="195" width="251" height="33" as="geometry" />
        </mxCell>
        <mxCell id="o3XGDwg1AF_5hUC5FcFn-14" style="edgeStyle=orthogonalEdgeStyle;rounded=0;orthogonalLoop=1;jettySize=auto;html=1;exitX=0.5;exitY=1;exitDx=0;exitDy=0;entryX=0.5;entryY=0;entryDx=0;entryDy=0;" edge="1" parent="WIyWlLk6GJQsqaUBKTNV-1" source="XgQ5IdHaCChkfWggYWmZ-9" target="o3XGDwg1AF_5hUC5FcFn-3">
          <mxGeometry relative="1" as="geometry" />
        </mxCell>
        <mxCell id="XgQ5IdHaCChkfWggYWmZ-9" value="&lt;pre class=&quot;xdpw7ca x1hywza8 xjbqb8w x1iyjqo2 x19cjget xuix1fa x13wc3wm xezyc0z xdj266r x11i5rnm xat24cr x1mh8g0r xw2csxc x1odjw0f xvaj83j xoyrooc x15g7ql4 xssjvct x1k5ss6i x1sdyfia x1lldw8n xp3md9m xp5j34i&quot;&gt;&lt;code class=&quot;x18ad04w&quot;&gt;Train ANN Model&lt;/code&gt;&lt;/pre&gt;" style="rounded=1;whiteSpace=wrap;html=1;" parent="WIyWlLk6GJQsqaUBKTNV-1" vertex="1">
          <mxGeometry x="257" y="255" width="140" height="80" as="geometry" />
        </mxCell>
        <mxCell id="o3XGDwg1AF_5hUC5FcFn-20" style="edgeStyle=orthogonalEdgeStyle;rounded=0;orthogonalLoop=1;jettySize=auto;html=1;entryX=0.5;entryY=0;entryDx=0;entryDy=0;" edge="1" parent="WIyWlLk6GJQsqaUBKTNV-1" source="o3XGDwg1AF_5hUC5FcFn-1" target="XgQ5IdHaCChkfWggYWmZ-6">
          <mxGeometry relative="1" as="geometry" />
        </mxCell>
        <mxCell id="o3XGDwg1AF_5hUC5FcFn-1" value="&lt;pre class=&quot;xdpw7ca x1hywza8 xjbqb8w x1iyjqo2 x19cjget xuix1fa x13wc3wm xezyc0z xdj266r x11i5rnm xat24cr x1mh8g0r xw2csxc x1odjw0f xvaj83j xoyrooc x15g7ql4 xssjvct x1k5ss6i x1sdyfia x1lldw8n xp3md9m xp5j34i&quot;&gt;&lt;code class=&quot;x18ad04w&quot;&gt;Collect 5G Network Data&lt;/code&gt;&lt;/pre&gt;" style="rounded=1;whiteSpace=wrap;html=1;fontSize=12;glass=0;strokeWidth=1;shadow=0;" vertex="1" parent="WIyWlLk6GJQsqaUBKTNV-1">
          <mxGeometry x="201" y="137" width="251" height="30" as="geometry" />
        </mxCell>
        <mxCell id="o3XGDwg1AF_5hUC5FcFn-15" style="edgeStyle=orthogonalEdgeStyle;rounded=0;orthogonalLoop=1;jettySize=auto;html=1;exitX=0.5;exitY=1;exitDx=0;exitDy=0;" edge="1" parent="WIyWlLk6GJQsqaUBKTNV-1" source="o3XGDwg1AF_5hUC5FcFn-3" target="o3XGDwg1AF_5hUC5FcFn-4">
          <mxGeometry relative="1" as="geometry" />
        </mxCell>
        <mxCell id="o3XGDwg1AF_5hUC5FcFn-3" value="Tese and Evaluations" style="rounded=1;whiteSpace=wrap;html=1;" vertex="1" parent="WIyWlLk6GJQsqaUBKTNV-1">
          <mxGeometry x="257" y="357" width="139" height="80" as="geometry" />
        </mxCell>
        <mxCell id="o3XGDwg1AF_5hUC5FcFn-5" style="edgeStyle=orthogonalEdgeStyle;rounded=0;orthogonalLoop=1;jettySize=auto;html=1;exitX=0;exitY=0.5;exitDx=0;exitDy=0;entryX=0.5;entryY=0;entryDx=0;entryDy=0;" edge="1" parent="WIyWlLk6GJQsqaUBKTNV-1" source="o3XGDwg1AF_5hUC5FcFn-4" target="o3XGDwg1AF_5hUC5FcFn-10">
          <mxGeometry relative="1" as="geometry">
            <mxPoint x="112" y="537.5882352941177" as="targetPoint" />
          </mxGeometry>
        </mxCell>
        <mxCell id="o3XGDwg1AF_5hUC5FcFn-6" style="edgeStyle=orthogonalEdgeStyle;rounded=0;orthogonalLoop=1;jettySize=auto;html=1;exitX=1;exitY=0.5;exitDx=0;exitDy=0;entryX=0.5;entryY=1;entryDx=0;entryDy=0;" edge="1" parent="WIyWlLk6GJQsqaUBKTNV-1" source="o3XGDwg1AF_5hUC5FcFn-4" target="o3XGDwg1AF_5hUC5FcFn-11">
          <mxGeometry relative="1" as="geometry">
            <mxPoint x="512" y="537" as="targetPoint" />
          </mxGeometry>
        </mxCell>
        <mxCell id="o3XGDwg1AF_5hUC5FcFn-4" value="&lt;pre class=&quot;xdpw7ca x1hywza8 xjbqb8w x1iyjqo2 x19cjget xuix1fa x13wc3wm xezyc0z xdj266r x11i5rnm xat24cr x1mh8g0r xw2csxc x1odjw0f xvaj83j xoyrooc x15g7ql4 xssjvct x1k5ss6i x1sdyfia x1lldw8n xp3md9m xp5j34i&quot;&gt;&lt;code class=&quot;x18ad04w&quot;&gt;Meets Performance Requirements&lt;/code&gt;&lt;/pre&gt;" style="rhombus;whiteSpace=wrap;html=1;" vertex="1" parent="WIyWlLk6GJQsqaUBKTNV-1">
          <mxGeometry x="208.75" y="462" width="235.5" height="150" as="geometry" />
        </mxCell>
        <mxCell id="o3XGDwg1AF_5hUC5FcFn-7" value="YES" style="text;html=1;align=center;verticalAlign=middle;resizable=0;points=[];autosize=1;strokeColor=none;fillColor=none;" vertex="1" parent="WIyWlLk6GJQsqaUBKTNV-1">
          <mxGeometry x="107" y="490" width="50" height="30" as="geometry" />
        </mxCell>
        <mxCell id="o3XGDwg1AF_5hUC5FcFn-8" value="NO" style="text;html=1;align=center;verticalAlign=middle;resizable=0;points=[];autosize=1;strokeColor=none;fillColor=none;" vertex="1" parent="WIyWlLk6GJQsqaUBKTNV-1">
          <mxGeometry x="432" y="490" width="40" height="30" as="geometry" />
        </mxCell>
        <mxCell id="o3XGDwg1AF_5hUC5FcFn-23" style="edgeStyle=orthogonalEdgeStyle;rounded=0;orthogonalLoop=1;jettySize=auto;html=1;entryX=0;entryY=0.5;entryDx=0;entryDy=0;" edge="1" parent="WIyWlLk6GJQsqaUBKTNV-1" source="o3XGDwg1AF_5hUC5FcFn-10" target="o3XGDwg1AF_5hUC5FcFn-16">
          <mxGeometry relative="1" as="geometry" />
        </mxCell>
        <mxCell id="o3XGDwg1AF_5hUC5FcFn-10" value="Deploy Model in 5G network" style="rounded=1;whiteSpace=wrap;html=1;" vertex="1" parent="WIyWlLk6GJQsqaUBKTNV-1">
          <mxGeometry x="52" y="640" width="139" height="80" as="geometry" />
        </mxCell>
        <mxCell id="o3XGDwg1AF_5hUC5FcFn-13" style="edgeStyle=orthogonalEdgeStyle;rounded=0;orthogonalLoop=1;jettySize=auto;html=1;entryX=1;entryY=0.5;entryDx=0;entryDy=0;" edge="1" parent="WIyWlLk6GJQsqaUBKTNV-1" source="o3XGDwg1AF_5hUC5FcFn-11" target="XgQ5IdHaCChkfWggYWmZ-9">
          <mxGeometry relative="1" as="geometry">
            <mxPoint x="482" y="282" as="targetPoint" />
          </mxGeometry>
        </mxCell>
        <mxCell id="o3XGDwg1AF_5hUC5FcFn-11" value="&lt;pre class=&quot;xdpw7ca x1hywza8 xjbqb8w x1iyjqo2 x19cjget xuix1fa x13wc3wm xezyc0z xdj266r x11i5rnm xat24cr x1mh8g0r xw2csxc x1odjw0f xvaj83j xoyrooc x15g7ql4 xssjvct x1k5ss6i x1sdyfia x1lldw8n xp3md9m xp5j34i&quot;&gt;&lt;code class=&quot;x18ad04w&quot;&gt;Refine ANN Model&lt;/code&gt;&lt;/pre&gt;" style="rounded=1;whiteSpace=wrap;html=1;" vertex="1" parent="WIyWlLk6GJQsqaUBKTNV-1">
          <mxGeometry x="462" y="254" width="139" height="80" as="geometry" />
        </mxCell>
        <mxCell id="o3XGDwg1AF_5hUC5FcFn-16" value="End" style="rounded=1;whiteSpace=wrap;html=1;" vertex="1" parent="WIyWlLk6GJQsqaUBKTNV-1">
          <mxGeometry x="259.5" y="640" width="139" height="80" as="geometry" />
        </mxCell>
        <mxCell id="o3XGDwg1AF_5hUC5FcFn-21" style="edgeStyle=orthogonalEdgeStyle;rounded=0;orthogonalLoop=1;jettySize=auto;html=1;entryX=0.5;entryY=0;entryDx=0;entryDy=0;" edge="1" parent="WIyWlLk6GJQsqaUBKTNV-1" source="o3XGDwg1AF_5hUC5FcFn-17" target="o3XGDwg1AF_5hUC5FcFn-1">
          <mxGeometry relative="1" as="geometry" />
        </mxCell>
        <mxCell id="o3XGDwg1AF_5hUC5FcFn-17" value="&lt;div&gt;Start&lt;/div&gt;" style="rounded=1;whiteSpace=wrap;html=1;" vertex="1" parent="WIyWlLk6GJQsqaUBKTNV-1">
          <mxGeometry x="257" y="20" width="139" height="70" as="geometry" />
        </mxCell>
      </root>
    </mxGraphModel>
  </diagram>
</mxfile>
